# Blender v2.79 (sub 0) OBJ File: 'sample_effect.blend'
# www.blender.org
mtllib blast_punch_huge.mtl
v 0.000238 0.406245 0.050046
v -0.078805 0.398460 0.050046
v -0.154811 0.375404 0.050046
v -0.224858 0.337963 0.050046
v -0.286255 0.287576 0.050046
v -0.336642 0.226179 0.050046
v -0.374083 0.156132 0.050046
v -0.397139 0.080127 0.050046
v -0.404924 0.001084 0.050046
v -0.397139 -0.077960 0.050046
v -0.374083 -0.153965 0.050046
v -0.336642 -0.224012 0.050046
v -0.286255 -0.285409 0.050046
v -0.224858 -0.335796 0.050046
v -0.154811 -0.373237 0.050046
v -0.078805 -0.396293 0.050046
v 0.000238 -0.404078 0.050046
v 0.079281 -0.396293 0.050046
v 0.155287 -0.373237 0.050046
v 0.225334 -0.335796 0.050046
v 0.286731 -0.285409 0.050046
v 0.337118 -0.224012 0.050046
v 0.374559 -0.153965 0.050046
v 0.397615 -0.077959 0.050046
v 0.405400 0.001084 0.050046
v 0.397614 0.080127 0.050046
v 0.374558 0.156133 0.050046
v 0.337117 0.226180 0.050046
v 0.286730 0.287576 0.050046
v 0.225333 0.337964 0.050046
v 0.155286 0.375404 0.050046
v 0.079280 0.398460 0.050046
v 0.000238 0.325213 -0.051244
v -0.062997 0.318985 -0.051244
v -0.123801 0.300540 -0.051244
v -0.179839 0.270587 -0.051244
v -0.228956 0.230278 -0.051244
v -0.269266 0.181160 -0.051244
v -0.299219 0.125123 -0.051244
v -0.317663 0.064318 -0.051244
v -0.323891 0.001084 -0.051244
v -0.317663 -0.062151 -0.051244
v -0.299219 -0.122955 -0.051244
v -0.269266 -0.178993 -0.051244
v -0.228956 -0.228111 -0.051244
v -0.179839 -0.268420 -0.051244
v -0.123801 -0.298373 -0.051244
v -0.062997 -0.316818 -0.051244
v 0.000238 -0.323046 -0.051244
v 0.063473 -0.316818 -0.051244
v 0.124277 -0.298373 -0.051244
v 0.180315 -0.268420 -0.051244
v 0.229432 -0.228110 -0.051244
v 0.269742 -0.178993 -0.051244
v 0.299695 -0.122955 -0.051244
v 0.318139 -0.062151 -0.051244
v 0.324367 0.001084 -0.051244
v 0.318139 0.064318 -0.051244
v 0.299694 0.125123 -0.051244
v 0.269741 0.181161 -0.051244
v 0.229432 0.230278 -0.051244
v 0.180314 0.270588 -0.051244
v 0.124276 0.300540 -0.051244
v 0.063472 0.318985 -0.051244
v 0.324367 0.001084 -0.051244
v 0.318139 0.064318 -0.051244
v 0.324367 0.001084 -0.051244
vt 1.000000 -0.000000
vt 1.000000 1.000000
vt 0.000000 1.000000
vt -0.000000 0.000000
vt 1.000000 -0.000000
vt 1.000000 1.000000
vt 0.000000 1.000000
vt -0.000000 0.000000
vt 1.000000 -0.000000
vt 1.000000 1.000000
vt 0.000000 1.000000
vt -0.000000 0.000000
vt 1.000000 -0.000000
vt 1.000000 1.000000
vt 0.000000 1.000000
vt -0.000000 0.000000
vt 1.000000 -0.000000
vt 1.000000 1.000000
vt 0.000000 1.000000
vt -0.000000 0.000000
vt 1.000000 -0.000000
vt 1.000000 1.000000
vt 0.000000 1.000000
vt -0.000000 0.000000
vt 1.000000 -0.000000
vt 1.000000 1.000000
vt 0.000000 1.000000
vt -0.000000 0.000000
vt 1.000000 -0.000000
vt 1.000000 1.000000
vt 0.000000 1.000000
vt -0.000000 0.000000
vt 1.000000 -0.000000
vt 1.000000 1.000000
vt 0.000000 1.000000
vt -0.000000 0.000000
vt 1.000000 -0.000000
vt 1.000000 1.000000
vt 0.000000 1.000000
vt -0.000000 0.000000
vt 1.000000 -0.000000
vt 1.000000 1.000000
vt 0.000000 1.000000
vt -0.000000 0.000000
vt 1.000000 -0.000000
vt 1.000000 1.000000
vt 0.000000 1.000000
vt -0.000000 0.000000
vt 1.000000 -0.000000
vt 1.000000 1.000000
vt 0.000000 1.000000
vt -0.000000 0.000000
vt 1.000000 -0.000000
vt 1.000000 1.000000
vt 0.000000 1.000000
vt -0.000000 0.000000
vt 1.000000 -0.000000
vt 1.000000 1.000000
vt 0.000000 1.000000
vt -0.000000 0.000000
vt 1.000000 -0.000000
vt 1.000000 1.000000
vt 0.000000 1.000000
vt -0.000000 0.000000
vt 1.000000 -0.000000
vt 1.000000 1.000000
vt 0.000000 1.000000
vt -0.000000 0.000000
vt 1.000000 -0.000000
vt 1.000000 1.000000
vt 0.000000 1.000000
vt -0.000000 0.000000
vt 1.000000 -0.000000
vt 1.000000 1.000000
vt 0.000000 1.000000
vt -0.000000 0.000000
vt 1.000000 -0.000000
vt 1.000000 1.000000
vt 0.000000 1.000000
vt -0.000000 0.000000
vt 1.000000 -0.000000
vt 1.000000 1.000000
vt 0.000000 1.000000
vt -0.000000 0.000000
vt 1.000000 -0.000000
vt 1.000000 1.000000
vt 0.000000 1.000000
vt -0.000000 0.000000
vt 1.000000 -0.000000
vt 1.000000 1.000000
vt 0.000000 1.000000
vt -0.000000 0.000000
vt 1.000000 -0.000000
vt 1.000000 1.000000
vt 0.000000 1.000000
vt -0.000000 0.000000
vt 1.000000 -0.000000
vt 1.000000 1.000000
vt 0.000000 1.000000
vt -0.000000 0.000000
vt 1.000000 -0.000000
vt 1.000000 1.000000
vt 0.000000 1.000000
vt -0.000000 0.000000
vt 1.000000 -0.000000
vt 1.000000 1.000000
vt 0.000000 1.000000
vt -0.000000 0.000000
vt 1.000000 -0.000000
vt 1.000000 1.000000
vt 0.000000 1.000000
vt -0.000000 0.000000
vt 1.000000 -0.000000
vt 1.000000 1.000000
vt 0.000000 1.000000
vt -0.000000 0.000000
vt 1.000000 -0.000000
vt 1.000000 1.000000
vt 0.000000 1.000000
vt -0.000000 0.000000
vt 1.000000 -0.000000
vt 1.000000 1.000000
vt 0.000000 1.000000
vt -0.000000 0.000000
vt 1.000000 -0.000000
vt 1.000000 1.000000
vt 0.000000 1.000000
vt -0.000000 0.000000
vn 0.1523 0.7659 -0.6247
vn 0.0000 0.7808 -0.6247
vn 0.2988 0.7214 -0.6247
vn 0.4338 0.6493 -0.6247
vn 0.5521 0.5521 -0.6247
vn 0.6493 0.4338 -0.6247
vn 0.7214 0.2988 -0.6247
vn 0.7659 0.1523 -0.6247
vn 0.7808 0.0000 -0.6247
vn 0.7659 -0.1523 -0.6247
vn 0.7214 -0.2988 -0.6247
vn 0.6493 -0.4338 -0.6247
vn 0.5521 -0.5521 -0.6247
vn 0.4338 -0.6493 -0.6247
vn 0.2988 -0.7214 -0.6247
vn 0.1523 -0.7659 -0.6247
vn 0.0000 -0.7808 -0.6247
vn -0.1523 -0.7659 -0.6247
vn -0.2988 -0.7214 -0.6247
vn -0.4338 -0.6493 -0.6247
vn -0.5521 -0.5521 -0.6247
vn -0.6493 -0.4338 -0.6247
vn -0.7214 -0.2988 -0.6247
vn -0.7659 -0.1523 -0.6247
vn -0.7808 0.0000 -0.6247
vn -0.7659 0.1523 -0.6247
vn -0.7214 0.2988 -0.6247
vn -0.6493 0.4338 -0.6247
vn -0.5521 0.5521 -0.6247
vn -0.4338 0.6493 -0.6247
vn -0.2988 0.7214 -0.6247
vn -0.1523 0.7659 -0.6247
usemtl None
s 1
f 32/1/1 64/2/1 33/3/2 1/4/2
f 31/5/3 63/6/3 64/7/1 32/8/1
f 30/9/4 62/10/4 63/11/3 31/12/3
f 29/13/5 61/14/5 62/15/4 30/16/4
f 28/17/6 60/18/6 61/19/5 29/20/5
f 27/21/7 59/22/7 60/23/6 28/24/6
f 26/25/8 58/26/8 59/27/7 27/28/7
f 25/29/9 57/30/9 58/31/8 26/32/8
f 24/33/10 56/34/10 57/35/9 25/36/9
f 23/37/11 55/38/11 56/39/10 24/40/10
f 22/41/12 54/42/12 55/43/11 23/44/11
f 21/45/13 53/46/13 54/47/12 22/48/12
f 20/49/14 52/50/14 53/51/13 21/52/13
f 19/53/15 51/54/15 52/55/14 20/56/14
f 18/57/16 50/58/16 51/59/15 19/60/15
f 17/61/17 49/62/17 50/63/16 18/64/16
f 16/65/18 48/66/18 49/67/17 17/68/17
f 15/69/19 47/70/19 48/71/18 16/72/18
f 14/73/20 46/74/20 47/75/19 15/76/19
f 13/77/21 45/78/21 46/79/20 14/80/20
f 12/81/22 44/82/22 45/83/21 13/84/21
f 11/85/23 43/86/23 44/87/22 12/88/22
f 10/89/24 42/90/24 43/91/23 11/92/23
f 9/93/25 41/94/25 42/95/24 10/96/24
f 8/97/26 40/98/26 41/99/25 9/100/25
f 7/101/27 39/102/27 40/103/26 8/104/26
f 6/105/28 38/106/28 39/107/27 7/108/27
f 5/109/29 37/110/29 38/111/28 6/112/28
f 4/113/30 36/114/30 37/115/29 5/116/29
f 3/117/31 35/118/31 36/119/30 4/120/30
f 2/121/32 34/122/32 35/123/31 3/124/31
f 1/125/2 33/126/2 34/127/32 2/128/32
l 57 65
l 58 66
l 65 67
