# Blender v2.79 (sub 0) OBJ File: 'katana_sheath.blend'
# www.blender.org
mtllib katana_sheath.mtl
o katana_Cube.075
v -0.022091 -0.060052 -0.000002
v -0.022091 0.059979 -0.000002
v 0.022134 0.059979 -0.000002
v 0.022008 -0.060052 -0.000002
v 0.021965 -0.060052 1.878344
v -0.022091 -0.060052 1.878344
v 0.022259 0.059937 1.878344
v -0.022091 0.059937 1.878344
vt 0.588212 0.917741
vt 0.375560 0.917736
vt 0.625553 0.917431
vt 0.525708 0.917434
vt 0.351562 0.875000
vt 0.351562 0.921875
vt 1.000000 0.921875
vt 1.000000 0.875000
vt 0.611474 0.878997
vt 0.361474 0.878997
vt 0.548974 0.878997
vt 0.486474 0.878997
vt 0.351562 0.921872
vt 1.000000 0.921878
vt 1.000000 0.875000
vt 0.351562 0.875000
vt 0.359375 0.921875
vt 0.359375 0.875000
vt 0.375000 0.875000
vt 0.375000 0.921875
vt 0.430469 0.962500
vt 0.421094 0.962499
vt 0.425058 0.953161
vt 0.430469 0.951563
vn 0.0000 -1.0000 -0.0000
vn 1.0000 -0.0017 -0.0000
vn 0.0000 1.0000 0.0000
vn -1.0000 0.0000 0.0000
vn 0.0000 0.0000 1.0000
vn 0.0000 -0.0000 -1.0000
usemtl None
s off
f 6/1/1 1/2/1 4/3/1 5/4/1
f 7/5/2 5/6/2 4/7/2 3/8/2
f 3/9/3 2/10/3 8/11/3 7/12/3
f 1/13/4 6/14/4 8/15/4 2/16/4
f 5/17/5 7/18/5 8/19/5 6/20/5
f 4/21/6 1/22/6 2/23/6 3/24/6
