# Blender v2.79 (sub 0) OBJ File: 'knuckle.blend'
# www.blender.org
mtllib knuckle.mtl
o Cube
v 0.050000 -0.148198 -0.046534
v 0.050000 -0.048198 -0.046534
v 0.050000 -0.048198 0.053466
v 0.050000 -0.148198 0.053466
v -0.050000 -0.148198 -0.046534
v -0.050000 -0.048198 -0.046534
v -0.050000 -0.048198 0.053466
v -0.050000 -0.148198 0.053466
v 0.050000 0.101802 0.203466
v 0.050000 0.201802 0.203466
v 0.050000 0.201802 0.303466
v 0.050000 0.101802 0.303466
v -0.050000 0.101802 0.203466
v -0.050000 0.201802 0.203466
v -0.050000 0.201802 0.303466
v -0.050000 0.101802 0.303466
v 0.050000 0.101802 -0.297862
v 0.050000 0.201802 -0.297862
v 0.050000 0.201802 -0.197862
v 0.050000 0.101802 -0.197862
v -0.050000 0.101802 -0.297862
v -0.050000 0.201802 -0.297862
v -0.050000 0.201802 -0.197862
v -0.050000 0.101802 -0.197862
v 0.050000 0.001802 0.254312
v 0.050000 0.101802 0.254312
v 0.050000 0.101802 0.354312
v 0.050000 0.001802 0.354312
v -0.050000 0.001802 0.254312
v -0.050000 0.101802 0.254312
v -0.050000 0.101802 0.354312
v -0.050000 0.001802 0.354312
v 0.048906 -0.098198 0.203466
v 0.048906 0.001802 0.203466
v 0.048906 0.001802 0.303466
v 0.048906 -0.098198 0.303466
v -0.048905 -0.098198 0.203466
v -0.048905 0.001802 0.203466
v -0.048905 0.001802 0.303466
v -0.048905 -0.098198 0.303466
v 0.050000 -0.148198 0.153466
v 0.050000 -0.048198 0.153466
v 0.050000 -0.048198 0.253466
v 0.050000 -0.148198 0.253466
v -0.050000 -0.148198 0.153466
v -0.050000 -0.048198 0.153466
v -0.050000 -0.048198 0.253466
v -0.050000 -0.148198 0.253466
v 0.050000 0.001802 -0.340490
v 0.050000 0.101802 -0.340490
v 0.050000 0.101802 -0.240490
v 0.050000 0.001802 -0.240490
v -0.050000 0.001802 -0.340490
v -0.050000 0.101802 -0.340490
v -0.050000 0.101802 -0.240490
v -0.050000 0.001802 -0.240490
v 0.048905 -0.098198 -0.297862
v 0.048905 0.001802 -0.297862
v 0.048905 0.001802 -0.197862
v 0.048905 -0.098198 -0.197862
v -0.048905 -0.098198 -0.297862
v -0.048906 0.001802 -0.297862
v -0.048905 0.001802 -0.197862
v -0.048905 -0.098198 -0.197862
v 0.050000 -0.148198 -0.246534
v 0.050000 -0.048198 -0.246534
v 0.050000 -0.048198 -0.146534
v 0.050000 -0.148198 -0.146534
v -0.050000 -0.148198 -0.246534
v -0.050000 -0.048198 -0.246534
v -0.050000 -0.048198 -0.146534
v -0.050000 -0.148198 -0.146534
v 0.050000 -0.098198 -0.146534
v 0.050000 0.001802 -0.146534
v 0.050000 0.001802 -0.046534
v 0.050000 -0.098198 -0.046534
v -0.050000 -0.098198 -0.146534
v -0.050000 0.001802 -0.146534
v -0.050000 0.001802 -0.046534
v -0.050000 -0.098198 -0.046534
v 0.050000 -0.098198 0.053466
v 0.050000 0.001802 0.053466
v 0.050000 0.001802 0.153466
v 0.050000 -0.098198 0.153466
v -0.050000 -0.098198 0.053466
v -0.050000 0.001802 0.053466
v -0.050000 0.001802 0.153466
v -0.050000 -0.098198 0.153466
vt 0.859375 0.656250
vt 0.890625 0.656250
vt 0.890625 0.687500
vt 0.859375 0.687500
vt 0.859375 0.656250
vt 0.890625 0.656250
vt 0.890625 0.687500
vt 0.859375 0.687500
vt 0.859375 0.539062
vt 0.890625 0.539062
vt 0.890625 0.570312
vt 0.859375 0.570312
vt 0.859375 0.539062
vt 0.890625 0.539062
vt 0.890625 0.570312
vt 0.859375 0.570312
vt 0.859375 0.539062
vt 0.890625 0.539062
vt 0.890625 0.570312
vt 0.859375 0.570312
vt 0.859375 0.539062
vt 0.890625 0.539062
vt 0.890625 0.570312
vt 0.859375 0.570312
vt 0.781250 0.734375
vt 0.812500 0.734375
vt 0.812500 0.765625
vt 0.781250 0.765625
vt 0.781250 0.734375
vt 0.812500 0.734375
vt 0.812500 0.765625
vt 0.781250 0.765625
vt 0.781250 0.617188
vt 0.812500 0.617188
vt 0.812500 0.648438
vt 0.781250 0.648438
vt 0.781250 0.617188
vt 0.812500 0.617188
vt 0.812500 0.648438
vt 0.781250 0.648438
vt 0.781250 0.617188
vt 0.812500 0.617188
vt 0.812500 0.648438
vt 0.781250 0.648438
vt 0.781250 0.617188
vt 0.812500 0.617188
vt 0.812500 0.648438
vt 0.781250 0.648438
vt 0.937500 0.734375
vt 0.968750 0.734375
vt 0.968750 0.765625
vt 0.937500 0.765625
vt 0.937500 0.734375
vt 0.968750 0.734375
vt 0.968750 0.765625
vt 0.937500 0.765625
vt 0.937500 0.617188
vt 0.968750 0.617188
vt 0.968750 0.648438
vt 0.937500 0.648438
vt 0.937500 0.617188
vt 0.968750 0.617188
vt 0.968750 0.648438
vt 0.937500 0.648438
vt 0.937500 0.617188
vt 0.968750 0.617188
vt 0.968750 0.648438
vt 0.937500 0.648438
vt 0.937500 0.617188
vt 0.968750 0.617188
vt 0.968750 0.648438
vt 0.937500 0.648438
vt 0.765625 0.703125
vt 0.796875 0.703125
vt 0.796875 0.734375
vt 0.765625 0.734375
vt 0.765625 0.703125
vt 0.796875 0.703125
vt 0.796875 0.734375
vt 0.765625 0.734375
vt 0.765625 0.585938
vt 0.796875 0.585938
vt 0.796875 0.617188
vt 0.765625 0.617188
vt 0.765625 0.585938
vt 0.796875 0.585938
vt 0.796875 0.617188
vt 0.765625 0.617188
vt 0.765625 0.585938
vt 0.796875 0.585938
vt 0.796875 0.617188
vt 0.765625 0.617188
vt 0.765625 0.585938
vt 0.796875 0.585938
vt 0.796875 0.617188
vt 0.765625 0.617188
vt 0.781250 0.671875
vt 0.812500 0.671875
vt 0.812500 0.703125
vt 0.781250 0.703125
vt 0.781250 0.671875
vt 0.812500 0.671875
vt 0.812500 0.703125
vt 0.781250 0.703125
vt 0.781250 0.554688
vt 0.812500 0.554688
vt 0.812500 0.585938
vt 0.781250 0.585938
vt 0.781250 0.554688
vt 0.812500 0.554688
vt 0.812500 0.585938
vt 0.781250 0.585938
vt 0.781250 0.554688
vt 0.812500 0.554688
vt 0.812500 0.585938
vt 0.781250 0.585938
vt 0.781250 0.554688
vt 0.812500 0.554688
vt 0.812500 0.585938
vt 0.781250 0.585938
vt 0.796875 0.656250
vt 0.828125 0.656250
vt 0.828125 0.687500
vt 0.796875 0.687500
vt 0.796875 0.656250
vt 0.828125 0.656250
vt 0.828125 0.687500
vt 0.796875 0.687500
vt 0.796875 0.539062
vt 0.828125 0.539062
vt 0.828125 0.570312
vt 0.796875 0.570312
vt 0.796875 0.539062
vt 0.828125 0.539062
vt 0.828125 0.570312
vt 0.796875 0.570312
vt 0.796875 0.539062
vt 0.828125 0.539062
vt 0.828125 0.570312
vt 0.796875 0.570312
vt 0.796875 0.539062
vt 0.828125 0.539062
vt 0.828125 0.570312
vt 0.796875 0.570312
vt 0.953125 0.703125
vt 0.984375 0.703125
vt 0.984375 0.734375
vt 0.953125 0.734375
vt 0.953125 0.703125
vt 0.984375 0.703125
vt 0.984375 0.734375
vt 0.953125 0.734375
vt 0.953125 0.585938
vt 0.984375 0.585938
vt 0.984375 0.617188
vt 0.953125 0.617188
vt 0.953125 0.585938
vt 0.984375 0.585938
vt 0.984375 0.617188
vt 0.953125 0.617188
vt 0.953125 0.585938
vt 0.984375 0.585938
vt 0.984375 0.617188
vt 0.953125 0.617188
vt 0.953125 0.585938
vt 0.984375 0.585938
vt 0.984375 0.617188
vt 0.953125 0.617188
vt 0.937500 0.671875
vt 0.968750 0.671875
vt 0.968750 0.703125
vt 0.937500 0.703125
vt 0.937500 0.671875
vt 0.968750 0.671875
vt 0.968750 0.703125
vt 0.937500 0.703125
vt 0.937500 0.554688
vt 0.968750 0.554688
vt 0.968750 0.585938
vt 0.937500 0.585938
vt 0.937500 0.554688
vt 0.968750 0.554688
vt 0.968750 0.585938
vt 0.937500 0.585938
vt 0.937500 0.554688
vt 0.968750 0.554688
vt 0.968750 0.585938
vt 0.937500 0.585938
vt 0.937500 0.554688
vt 0.968750 0.554688
vt 0.968750 0.585938
vt 0.937500 0.585938
vt 0.921875 0.656250
vt 0.953125 0.656250
vt 0.953125 0.687500
vt 0.921875 0.687500
vt 0.921875 0.656250
vt 0.953125 0.656250
vt 0.953125 0.687500
vt 0.921875 0.687500
vt 0.921875 0.539062
vt 0.953125 0.539062
vt 0.953125 0.570312
vt 0.921875 0.570312
vt 0.921875 0.539062
vt 0.953125 0.539062
vt 0.953125 0.570312
vt 0.921875 0.570312
vt 0.921875 0.539062
vt 0.953125 0.539062
vt 0.953125 0.570312
vt 0.921875 0.570312
vt 0.921875 0.539062
vt 0.953125 0.539062
vt 0.953125 0.570312
vt 0.921875 0.570312
vt 0.890625 0.671875
vt 0.921875 0.671875
vt 0.921875 0.703125
vt 0.890625 0.703125
vt 0.890625 0.671875
vt 0.921875 0.671875
vt 0.921875 0.703125
vt 0.890625 0.703125
vt 0.890625 0.554688
vt 0.921875 0.554688
vt 0.921875 0.585938
vt 0.890625 0.585938
vt 0.890625 0.554688
vt 0.921875 0.554688
vt 0.921875 0.585938
vt 0.890625 0.585938
vt 0.890625 0.554688
vt 0.921875 0.554688
vt 0.921875 0.585938
vt 0.890625 0.585938
vt 0.890625 0.554688
vt 0.921875 0.554688
vt 0.921875 0.585938
vt 0.890625 0.585938
vt 0.828125 0.671875
vt 0.859375 0.671875
vt 0.859375 0.703125
vt 0.828125 0.703125
vt 0.828125 0.671875
vt 0.859375 0.671875
vt 0.859375 0.703125
vt 0.828125 0.703125
vt 0.828125 0.554688
vt 0.859375 0.554688
vt 0.859375 0.585938
vt 0.828125 0.585938
vt 0.828125 0.554688
vt 0.859375 0.554688
vt 0.859375 0.585938
vt 0.828125 0.585938
vt 0.828125 0.554688
vt 0.859375 0.554688
vt 0.859375 0.585938
vt 0.828125 0.585938
vt 0.828125 0.554688
vt 0.859375 0.554688
vt 0.859375 0.585938
vt 0.828125 0.585938
vn 1.0000 0.0000 -0.0000
vn -1.0000 0.0000 0.0000
vn -0.0000 0.0000 -1.0000
vn 0.0000 1.0000 0.0000
vn 0.0000 -0.0000 1.0000
vn 0.0000 -1.0000 0.0000
usemtl Material
s off
f 1/1/1 2/2/1 3/3/1 4/4/1
f 5/5/2 8/6/2 7/7/2 6/8/2
f 1/9/3 5/10/3 6/11/3 2/12/3
f 2/13/4 6/14/4 7/15/4 3/16/4
f 3/17/5 7/18/5 8/19/5 4/20/5
f 5/21/6 1/22/6 4/23/6 8/24/6
f 9/25/1 10/26/1 11/27/1 12/28/1
f 13/29/2 16/30/2 15/31/2 14/32/2
f 9/33/3 13/34/3 14/35/3 10/36/3
f 10/37/4 14/38/4 15/39/4 11/40/4
f 11/41/5 15/42/5 16/43/5 12/44/5
f 13/45/6 9/46/6 12/47/6 16/48/6
f 17/49/1 18/50/1 19/51/1 20/52/1
f 21/53/2 24/54/2 23/55/2 22/56/2
f 17/57/3 21/58/3 22/59/3 18/60/3
f 18/61/4 22/62/4 23/63/4 19/64/4
f 19/65/5 23/66/5 24/67/5 20/68/5
f 21/69/6 17/70/6 20/71/6 24/72/6
f 25/73/1 26/74/1 27/75/1 28/76/1
f 29/77/2 32/78/2 31/79/2 30/80/2
f 25/81/3 29/82/3 30/83/3 26/84/3
f 26/85/4 30/86/4 31/87/4 27/88/4
f 27/89/5 31/90/5 32/91/5 28/92/5
f 29/93/6 25/94/6 28/95/6 32/96/6
f 33/97/1 34/98/1 35/99/1 36/100/1
f 37/101/2 40/102/2 39/103/2 38/104/2
f 33/105/3 37/106/3 38/107/3 34/108/3
f 34/109/4 38/110/4 39/111/4 35/112/4
f 35/113/5 39/114/5 40/115/5 36/116/5
f 37/117/6 33/118/6 36/119/6 40/120/6
f 41/121/1 42/122/1 43/123/1 44/124/1
f 45/125/2 48/126/2 47/127/2 46/128/2
f 41/129/3 45/130/3 46/131/3 42/132/3
f 42/133/4 46/134/4 47/135/4 43/136/4
f 43/137/5 47/138/5 48/139/5 44/140/5
f 45/141/6 41/142/6 44/143/6 48/144/6
f 49/145/1 50/146/1 51/147/1 52/148/1
f 53/149/2 56/150/2 55/151/2 54/152/2
f 49/153/3 53/154/3 54/155/3 50/156/3
f 50/157/4 54/158/4 55/159/4 51/160/4
f 51/161/5 55/162/5 56/163/5 52/164/5
f 53/165/6 49/166/6 52/167/6 56/168/6
f 57/169/1 58/170/1 59/171/1 60/172/1
f 61/173/2 64/174/2 63/175/2 62/176/2
f 57/177/3 61/178/3 62/179/3 58/180/3
f 58/181/4 62/182/4 63/183/4 59/184/4
f 59/185/5 63/186/5 64/187/5 60/188/5
f 61/189/6 57/190/6 60/191/6 64/192/6
f 65/193/1 66/194/1 67/195/1 68/196/1
f 69/197/2 72/198/2 71/199/2 70/200/2
f 65/201/3 69/202/3 70/203/3 66/204/3
f 66/205/4 70/206/4 71/207/4 67/208/4
f 67/209/5 71/210/5 72/211/5 68/212/5
f 69/213/6 65/214/6 68/215/6 72/216/6
f 73/217/1 74/218/1 75/219/1 76/220/1
f 77/221/2 80/222/2 79/223/2 78/224/2
f 73/225/3 77/226/3 78/227/3 74/228/3
f 74/229/4 78/230/4 79/231/4 75/232/4
f 75/233/5 79/234/5 80/235/5 76/236/5
f 77/237/6 73/238/6 76/239/6 80/240/6
f 81/241/1 82/242/1 83/243/1 84/244/1
f 85/245/2 88/246/2 87/247/2 86/248/2
f 81/249/3 85/250/3 86/251/3 82/252/3
f 82/253/4 86/254/4 87/255/4 83/256/4
f 83/257/5 87/258/5 88/259/5 84/260/5
f 85/261/6 81/262/6 84/263/6 88/264/6
