# Blender v2.79 (sub 0) OBJ File: 'greatsword.blend'
# www.blender.org
mtllib greatsword.mtl
o Cube
v -0.063152 0.194552 0.837798
v 0.063152 0.194552 0.837798
v -0.063152 0.194552 1.090406
v 0.063152 0.194552 1.090406
v -0.063152 0.097276 0.837798
v 0.063152 0.097276 0.837798
v -0.063152 -0.194552 0.837798
v 0.063152 -0.194552 0.837798
v -0.063152 -0.194552 1.090406
v 0.063152 -0.194552 1.090406
v -0.063152 -0.097276 1.216709
v 0.063152 -0.097276 1.216709
v -0.063152 0.097276 1.216709
v 0.063152 0.097276 1.216709
v 0.063152 0.097276 1.090406
v -0.063152 -0.097276 0.837798
v 0.063152 -0.097276 1.090406
v -0.189455 0.097276 1.090406
v -0.189455 -0.097276 1.090406
v -0.189455 -0.097276 0.837798
v -0.189455 0.097276 0.837798
v 0.189455 0.097276 0.837798
v 0.063152 -0.097276 0.837798
v 0.189455 -0.097276 0.837798
v 0.189455 -0.097276 1.090406
v 0.189455 0.097276 1.090406
v -0.063152 0.194552 -0.298934
v 0.063152 0.097276 -0.298934
v 0.063152 0.194552 -0.298934
v -0.063152 0.097276 -0.298934
v -0.063152 -0.194552 -0.298934
v -0.063152 -0.097276 -0.298934
v 0.063152 -0.194552 -0.298934
v 0.063152 -0.097276 -0.298934
v -0.063152 -0.583655 -0.425238
v 0.063152 -0.583655 -0.425238
v -0.063152 0.583655 -0.425238
v 0.063152 0.583655 -0.425238
v 0.063152 -0.194552 -0.425238
v -0.063152 -0.194552 -0.425238
v -0.063152 0.194552 -0.425238
v 0.063152 0.194552 -0.425238
v 0.063152 0.486379 -0.677845
v -0.063152 0.486379 -0.677845
v -0.063152 0.583655 -0.677845
v 0.063152 0.583655 -0.677845
v -0.063152 -0.486379 -0.677845
v -0.063152 -0.583655 -0.677845
v 0.063152 -0.583655 -0.677845
v 0.063152 -0.486379 -0.677845
v -0.063152 0.486379 -0.804148
v 0.063152 0.486379 -0.804148
v -0.063152 -0.486379 -0.804148
v 0.063152 -0.486379 -0.804148
v -0.113673 -0.097276 -3.082058
v -0.113673 0.097276 -3.082058
v 0.113673 -0.097276 -3.082058
v 0.113673 0.097276 -3.082058
v -0.113673 -0.097276 -0.677845
v -0.113673 0.097276 -0.677845
v -0.113673 -0.097276 -0.425238
v -0.113673 0.097276 -0.425238
v -0.113673 0.389104 -0.551541
v -0.113673 0.389104 -0.677845
v -0.113673 0.097276 -0.551541
v -0.113673 -0.097276 -0.551541
v -0.113673 -0.389104 -0.677845
v -0.113673 -0.389104 -0.551541
v 0.113673 -0.097276 -0.677845
v 0.113673 0.097276 -0.677845
v 0.113673 -0.097276 -0.425238
v 0.113673 0.097276 -0.425238
v 0.113673 0.389104 -0.551541
v 0.113673 0.389104 -0.677845
v 0.113673 0.097276 -0.551541
v 0.113673 -0.097276 -0.551541
v 0.113673 -0.389103 -0.677845
v 0.113673 -0.389103 -0.551541
v -0.063152 -0.175589 -4.674136
v 0.063152 -0.175589 -4.674136
v -0.063152 0.175589 -4.674136
v 0.063152 0.175589 -4.674136
v 0.063152 -0.175589 -3.966183
v -0.063152 -0.175589 -3.966183
v -0.063152 -0.263383 -3.966183
v 0.063152 -0.263383 -3.966183
v 0.063152 0.175589 -3.966183
v -0.063152 0.175589 -3.966183
v -0.063152 0.263383 -3.966183
v 0.063152 0.263383 -3.966183
v -0.063152 -0.097276 1.090406
v -0.063152 0.097276 1.090406
v -0.063152 -0.291828 -0.804148
v 0.063152 -0.291828 -0.804148
v -0.063152 0.291828 -0.804148
v 0.063152 0.291828 -0.804148
vt 0.234375 0.781250
vt 0.281250 0.781250
vt 0.281250 0.812500
vt 0.234375 0.812500
vt 0.195312 0.875000
vt 0.195312 0.851562
vt 0.203125 0.851562
vt 0.203125 0.875000
vt 0.179688 0.828125
vt 0.195312 0.828125
vt 0.195312 0.843750
vt 0.179688 0.843750
vt 0.210938 0.890625
vt 0.226562 0.890625
vt 0.226562 0.906250
vt 0.210938 0.906250
vt 0.203125 0.859375
vt 0.218750 0.859375
vt 0.218750 0.875000
vt 0.203125 0.875000
vt 0.867188 0.781250
vt 0.875000 0.781250
vt 0.875000 0.789062
vt 0.867188 0.789062
vt 0.867188 0.851562
vt 0.875000 0.851562
vt 0.875000 0.859375
vt 0.867188 0.859375
vt 0.015625 0.804687
vt 0.015625 0.835938
vt 0.046875 0.835938
vt 0.046875 0.804688
vt 0.046875 0.835937
vt 0.015625 0.835938
vt 0.015625 0.804688
vt 0.046875 0.804688
vt 0.234375 0.820313
vt 0.289062 0.820312
vt 0.289062 0.859375
vt 0.234375 0.859375
vt 0.015625 0.804688
vt 0.015625 0.835938
vt 0.000000 0.835938
vt -0.000000 0.804688
vt 0.015625 0.804688
vt 0.015625 0.835938
vt 0.000000 0.835938
vt 0.000000 0.804688
vt 0.195312 0.828125
vt 0.179688 0.828125
vt 0.179688 0.796875
vt 0.195312 0.796875
vt 0.000000 0.820312
vt 0.015625 0.820312
vt 0.000000 0.835938
vt 0.195312 0.750000
vt 0.218750 0.750000
vt 0.218750 0.781250
vt 0.195312 0.781250
vt 0.046875 0.835937
vt 0.046875 0.843750
vt 0.023438 0.843750
vt 0.023437 0.835938
vt 0.218750 0.851562
vt 0.218750 0.875000
vt 0.210938 0.875000
vt 0.210937 0.851562
vt 0.210937 0.875000
vt 0.210938 0.843750
vt 0.234375 0.843750
vt 0.234375 0.875000
vt 0.234375 0.781250
vt 0.281250 0.781250
vt 0.281250 0.812500
vt 0.234375 0.812500
vt 0.023438 0.804687
vt 0.023438 0.796875
vt 0.046875 0.796875
vt 0.046875 0.804688
vt 0.835938 0.828125
vt 0.867188 0.828125
vt 0.867188 0.851562
vt 0.835938 0.851562
vt 0.046875 0.835938
vt 0.046875 0.828125
vt 0.179688 0.828125
vt 0.179688 0.835938
vt 0.046875 0.804688
vt 0.179688 0.804688
vt 0.179688 0.812500
vt 0.046875 0.812500
vt 0.046875 0.835938
vt 0.046875 0.804688
vt 0.179688 0.804688
vt 0.179688 0.835938
vt 0.015625 0.742188
vt 0.039062 0.742188
vt 0.039062 0.757812
vt 0.015625 0.757812
vt 0.015625 0.757812
vt 0.015625 0.648438
vt 0.031250 0.648438
vt 0.031250 0.757812
vt 0.007812 0.718750
vt 0.007812 0.687500
vt 0.031250 0.687500
vt 0.031250 0.718750
vt 0.007812 0.687500
vt 0.023438 0.687500
vt 0.023438 0.718750
vt 0.007812 0.718750
vt 0.031250 0.687500
vt 0.031250 0.718750
vt 0.015625 0.718750
vt 0.015625 0.687500
vt 0.039062 0.703125
vt 0.039062 0.687500
vt 0.062500 0.687500
vt 0.062500 0.703125
vt 0.039062 0.757812
vt 0.039062 0.648438
vt 0.015625 0.648438
vt 0.015625 0.757812
vt 0.039062 0.648438
vt 0.039062 0.757812
vt 0.023438 0.757812
vt 0.023437 0.648438
vt 0.039062 0.664062
vt 0.015625 0.664062
vt 0.585938 0.718750
vt 0.039062 0.718750
vt 0.039062 0.687500
vt 0.585938 0.687500
vt 0.585937 0.687500
vt 0.585938 0.718750
vt 0.039063 0.718750
vt 0.039062 0.687500
vt 0.015625 0.648437
vt 0.039062 0.648438
vt 0.039062 0.757812
vt 0.562500 0.695312
vt 0.585938 0.695312
vt 0.585938 0.718750
vt 0.562500 0.718750
vt 0.039062 0.710938
vt 0.585938 0.710938
vt 0.585938 0.718750
vt 0.039062 0.718750
vt 0.039062 0.687500
vt 0.585938 0.687500
vt 0.585938 0.718750
vt 0.195312 0.843750
vt 0.187500 0.843750
vt 0.187500 0.796875
vt 0.195312 0.796875
vt 0.179688 0.843750
vt 0.179688 0.796875
vt 0.187500 0.796875
vt 0.187500 0.843750
vt 0.179688 0.796875
vt 0.187500 0.796875
vt 0.187500 0.843750
vt 0.179688 0.843750
vt 0.179688 0.812500
vt 0.179688 0.796875
vt 0.195312 0.796875
vt 0.195312 0.812500
vt 0.210938 0.726562
vt 0.210938 0.906250
vt 0.195313 0.906250
vt 0.195312 0.726562
vt 0.195312 0.890625
vt 0.226562 0.890625
vt 0.195312 0.906250
vt 0.195312 0.726562
vt 0.226562 0.726562
vt 0.226562 0.906250
vt 0.195312 0.726562
vt 0.226562 0.726562
vt 0.226562 0.906250
vt 0.195312 0.906250
vt 0.218750 0.875000
vt 0.234375 0.875000
vt 0.234375 0.890625
vt 0.218750 0.890625
vt 0.218750 0.750000
vt 0.234375 0.750000
vt 0.234375 0.765625
vt 0.218750 0.765625
vt 0.234375 0.890625
vt 0.218750 0.890625
vt 0.218750 0.750000
vt 0.234375 0.750000
vt 0.234375 0.750000
vt 0.234375 0.890625
vt 0.218750 0.890625
vt 0.218750 0.750000
vt 0.210938 0.726562
vt 0.210938 0.765625
vt 0.195312 0.765625
vt 0.218750 0.890625
vt 0.218750 0.750000
vt 0.234375 0.750000
vt 0.867188 0.867188
vt 0.234375 0.867188
vt 0.234375 0.859375
vt 0.875000 0.867187
vt 0.234375 0.867188
vt 0.234375 0.773438
vt 0.875000 0.773438
vt 0.234375 0.773438
vt 0.875000 0.773438
vt 0.875000 0.867188
vt 0.234375 0.867188
vt 0.234375 0.781250
vt 0.234375 0.773438
vt 0.867188 0.773438
vt 0.875000 0.851562
vt 0.875000 0.843750
vt 0.976562 0.843750
vt 0.976562 0.851562
vt 0.984375 0.796875
vt 0.875000 0.796875
vt 0.984375 0.789062
vt 0.976562 0.789062
vt 0.984375 0.851562
vt 0.976562 0.851562
vt 0.875000 0.851562
vt 0.875000 0.789062
vt 0.984375 0.789062
vt 0.984375 0.851562
vt 0.007812 0.703125
vt 0.031250 0.703125
vn -0.0000 1.0000 -0.0000
vn 0.0000 0.0000 -1.0000
vn -1.0000 -0.0000 0.0000
vn 1.0000 0.0000 0.0000
vn -0.0000 0.0000 1.0000
vn 0.0000 -1.0000 0.0000
vn 0.0000 1.0000 -0.0090
vn -0.0000 -1.0000 -0.0090
usemtl None
s off
f 22/1/1 21/2/1 18/3/1 26/4/1
f 2/5/2 8/6/2 7/7/2 1/8/2
f 29/9/1 42/10/1 41/11/1 27/12/1
f 43/13/2 44/14/2 45/15/2 46/16/2
f 49/17/2 48/18/2 47/19/2 50/20/2
f 86/21/2 85/22/2 84/23/2 83/24/2
f 87/25/2 88/26/2 89/27/2 90/28/2
f 19/29/3 18/30/3 21/31/3 20/32/3
f 22/33/4 26/34/4 25/35/4 24/36/4
f 26/37/5 18/38/5 19/39/5 25/40/5
f 17/41/4 15/42/4 14/43/4 12/44/4
f 12/45/5 14/46/5 13/47/5 11/48/5
f 13/49/3 92/50/3 91/51/3 11/52/3
f 13/53/1 14/54/1 15/42/1 92/55/1
f 7/56/3 9/57/3 3/58/3 1/59/3
f 2/60/1 1/61/1 3/62/1 4/63/1
f 10/64/5 4/65/5 3/66/5 9/67/5
f 4/68/4 10/69/4 8/70/4 2/71/4
f 24/72/2 20/73/2 21/74/2 22/75/2
f 10/76/6 9/77/6 7/78/6 8/79/6
f 24/80/6 25/81/6 19/82/6 20/83/6
f 5/84/1 6/85/1 28/86/1 30/87/1
f 16/88/6 32/89/6 34/90/6 23/91/6
f 6/92/4 23/93/4 34/94/4 28/95/4
f 30/87/3 32/89/3 16/88/3 5/84/3
f 64/96/1 63/97/1 73/98/1 74/99/1
f 68/100/3 63/101/3 64/102/3 67/103/3
f 62/104/5 61/105/5 71/106/5 72/107/5
f 66/108/3 61/109/3 62/110/3 65/111/3
f 76/112/4 75/113/4 72/114/4 71/115/4
f 65/116/1 62/117/1 72/118/1 75/119/1
f 63/120/5 68/121/5 78/122/5 73/123/5
f 77/124/4 74/125/4 73/126/4 78/127/4
f 68/121/6 67/128/6 77/129/6 78/122/6
f 58/130/4 70/131/4 69/132/4 57/133/4
f 56/134/3 55/135/3 59/136/3 60/137/3
f 74/99/2 77/138/2 67/139/2 64/140/2
f 57/141/2 55/142/2 56/143/2 58/144/2
f 58/145/1 56/146/1 60/147/1 70/131/1
f 69/148/6 59/149/6 55/150/6 57/151/6
f 29/152/5 27/153/5 31/154/5 33/155/5
f 29/156/4 33/157/4 39/158/4 42/159/4
f 27/160/3 41/161/3 40/162/3 31/163/3
f 33/164/6 31/165/6 40/166/6 39/167/6
f 36/168/5 38/169/5 37/170/5 35/171/5
f 38/172/1 46/173/1 45/15/1 37/170/1
f 38/174/4 36/175/4 49/176/4 46/177/4
f 37/178/3 45/179/3 48/180/3 35/181/3
f 43/182/1 52/183/1 51/184/1 44/185/1
f 50/186/6 47/187/6 53/188/6 54/189/6
f 52/190/4 43/191/4 50/192/4 54/193/4
f 51/194/3 53/195/3 47/196/3 44/197/3
f 36/175/6 35/198/6 48/199/6 49/200/6
f 52/201/2 54/202/2 53/203/2 51/184/2
f 90/28/7 89/204/7 95/205/7 96/206/7
f 85/207/3 93/208/3 95/209/3 89/210/3
f 94/211/4 86/212/4 90/213/4 96/214/4
f 86/21/8 94/215/8 93/216/8 85/217/8
f 82/218/1 81/219/1 88/220/1 87/221/1
f 80/222/6 83/223/6 84/23/6 79/224/6
f 80/225/2 79/224/2 81/226/2 82/227/2
f 87/228/4 83/229/4 80/230/4 82/231/4
f 88/26/3 81/226/3 79/224/3 84/23/3
f 61/232/6 66/108/6 76/112/6 71/233/6
